<?xml version="1.0" encoding="UTF-8"?><!DOCTYPE svg PUBLIC "-//W3C//DTD SVG 1.1//EN" "http://www.w3.org/Graphics/SVG/1.1/DTD/svg11.dtd"><svg xmlns="http://www.w3.org/2000/svg" xmlns:xlink="http://www.w3.org/1999/xlink" version="1.1" width="24" height="24" viewBox="0 0 24 24"><path d="M9,14C11.67,14 17,15.33 17,18V20H1V18C1,15.33 6.33,14 9,14M9,12A4,4 0 0,1 5,8A4,4 0 0,1 9,4A4,4 0 0,1 13,8A4,4 0 0,1 9,12M19,13.28L16.54,14.77L17.2,11.96L15,10.08L17.89,9.83L19,7.19L20.13,9.83L23,10.08L20.82,11.96L21.5,14.77L19,13.28Z" /></svg>