<?xml version="1.0" encoding="UTF-8" standalone="no"?>
<svg width="200px" height="188px" viewBox="0 0 200 188" version="1.1" xmlns="http://www.w3.org/2000/svg" xmlns:xlink="http://www.w3.org/1999/xlink">
    <!-- Generator: Sketch 39.1 (31720) - http://www.bohemiancoding.com/sketch -->
    <title>bear1</title>
    <desc>Created with Sketch.</desc>
    <defs></defs>
    <g id="Page-1" stroke="none" stroke-width="1" fill="none" fill-rule="evenodd">
        <g id="bear1">
            <g id="Group">
                <g id="Shape">
                    <path d="M188,45.8 C187.2,44.6 186.4,43.5 185.6,42.4 C205.4,10 158.7,-14.9 141.8,12.7 C121,8.9 103.6,16.5 101.3,17.6 C99,16.5 81.8,9 61.2,12.7 C40.9,-16.2 -1.2,13.5 17.3,42 C16.4,43.2 15.5,44.5 14.7,45.8 C-11.7,85.9 8.1,113.1 8.1,113.1 L12.2,109 C12.2,109 18,137 48.4,155.4 L49.5,149.4 C68.3,169.4 85.6,169 101.8,187.3 C116.8,170 138.5,170 155.4,148.3 L155.4,156 C186.7,140.8 189.6,107.9 189.6,107.9 L192.5,113.2 C192.4,113.2 214.4,85.9 188,45.8 L188,45.8 Z M101.7,154.3 C82.4,154.4 84.9,150 84.9,150 C87.1,148.6 101.7,148.4 101.7,148.4 C111.3,148.4 117.5,150.3 117.5,150.3 C117.4,150.9 120.1,154.2 101.7,154.3 L101.7,154.3 Z M65.2,65.5 C66.8,65.2 69.3,66 72,67.5 C71.6,67.4 71.3,67.2 70.9,67.1 C70.9,67.1 70.3,76 76.9,77.9 C78.3,75.2 80.7,73.7 82.2,74.2 C83.2,75 84.1,75.7 84.9,76.4 C94.1,84.1 101.2,82.5 101.2,82.5 C101.2,82.5 101.3,111.8 101.3,115.5 C101.3,115.5 74.8,113.4 89,131.5 C89,131.5 91.3,124.9 93.7,127 C97.1,129.9 101.5,135.8 101.5,136.4 L101.5,144.3 L96.2,144.6 C93.1,144.7 83.3,147 83.3,147 C69.7,113.3 77.2,87.8 80.9,78.8 C67.4,81.6 65.2,65.5 65.2,65.5 L65.2,65.5 Z M114.1,131.5 C126,115.8 104.4,115.7 101.6,115.5 C103.4,115.2 131.1,114.2 114.1,131.5 L114.1,131.5 Z M125.4,79.2 C140.8,120.6 121.2,147.1 121.2,147.1 C133.3,115.5 125.5,89.3 120.2,79.5 C117.5,79.8 114.2,79.6 114.2,79.6 C114.2,79.6 118.3,77.1 120.9,74.7 C123.5,72.3 130.6,66.1 138.8,65.3 C138.9,65.5 137.5,79.1 125.4,79.2 L125.4,79.2 Z M149.7,25.9 C146.5,35.6 136.3,36.7 131.8,41.7 C126.5,47.5 124.9,58.4 124.9,58.4 C124.9,58.4 136.5,53.3 144.4,54.9 C153.9,56.8 159.8,60.9 159.8,60.9 C159.8,60.9 145.1,56.3 131.3,61.6 C117.5,66.9 113.8,80.5 104.5,74.5 L101.9,36.2 L99,74.5 C89.6,80.5 86,66.9 72.2,61.6 C58.4,56.3 43.7,60.9 43.7,60.9 C51.9,60.2 58.6,63.5 58.6,63.5 C60.2,78.4 69,79.8 69,79.8 C59.9,114.3 78.3,147.2 81.2,152.3 C85.4,159.7 101.5,158.4 101.5,158.4 L101.5,175 C101.1,172 88.9,165.9 86.6,164.9 C63.5,154.8 43.8,131.1 43.8,131.1 L42.7,139.7 C23.8,128.7 16.5,93.8 16.5,93.8 L11.4,100.2 C1.8,68.2 27.3,42.2 27.3,42.2 C24.6,37.5 16.6,19.5 32,11.7 C47.4,3.9 58.3,22.8 58.3,22.8 C77,17.9 101.8,26.5 101.8,26.5 C128,15.2 145.3,23.4 145.3,23.4 C157.5,2.5 175.1,14.1 175.1,14.1 C155.9,10.3 149.7,25.9 149.7,25.9 L149.7,25.9 Z"></path>
                </g>
                <path d="M52.9,24.8 C52.9,24.8 41.3,10.3 31.8,19.8 C31.8,19.8 39.5,19.5 43.2,24 C43.2,24 33.6,19.9 29.3,28.3 C29.3,28.3 34,25.9 36.8,28.7 C36.8,28.7 30.2,33.9 30.8,39.1 C30.6,39.1 42.6,27.2 52.9,24.8" id="Shape"></path>
            </g>
        </g>
    </g>
</svg>