<?xml version="1.0" encoding="UTF-8" standalone="no"?>
<svg width="133px" height="125px" viewBox="0 0 133 125" version="1.1" xmlns="http://www.w3.org/2000/svg" xmlns:xlink="http://www.w3.org/1999/xlink">
    <!-- Generator: Sketch 39.1 (31720) - http://www.bohemiancoding.com/sketch -->
    <title>logo</title>
    <desc>Created with Sketch.</desc>
    <defs></defs>
    <g id="Page-1" stroke="none" stroke-width="1" fill="none" fill-rule="evenodd">
        <g id="logo" fill="#FFFFFF">
            <g id="Page-1">
                <g id="bear1">
                    <g id="Group">
                        <g id="Shape">
                            <path d="M124.39801,30.4521277 C123.868657,29.6542553 123.339303,28.9228723 122.80995,28.1914894 C135.911443,6.64893617 105.010448,-9.90691489 93.8278607,8.44414894 C80.0646766,5.91755319 68.5512438,10.9707447 67.0293532,11.7021277 C65.5074627,10.9707447 54.1263682,5.98404255 40.4955224,8.44414894 C27.0631841,-10.7712766 -0.794029851,8.97606383 11.4472637,27.9255319 C10.8517413,28.7234043 10.2562189,29.587766 9.72686567,30.4521277 C-7.74179104,57.1143617 5.35970149,75.1994681 5.35970149,75.1994681 L8.07263682,72.4734043 C8.07263682,72.4734043 11.9104478,91.0904255 32.0258706,103.324468 L32.7537313,99.3351064 C45.1935323,112.632979 56.640796,112.367021 67.360199,124.534574 C77.2855721,113.031915 91.6442786,113.031915 102.826866,98.6037234 L102.826866,103.723404 C123.537811,93.6170213 125.456716,71.7420213 125.456716,71.7420213 L127.375622,75.2659574 C127.309453,75.2659574 141.866667,57.1143617 124.39801,30.4521277 L124.39801,30.4521277 L124.39801,30.4521277 Z M67.2940299,102.593085 C54.5233831,102.659574 56.1776119,99.7340426 56.1776119,99.7340426 C57.6333333,98.8031915 67.2940299,98.6702128 67.2940299,98.6702128 C73.6462687,98.6702128 77.7487562,99.9335106 77.7487562,99.9335106 C77.6825871,100.332447 79.4691542,102.526596 67.2940299,102.593085 L67.2940299,102.593085 L67.2940299,102.593085 Z M43.1422886,43.5505319 C44.200995,43.3510638 45.8552239,43.8829787 47.641791,44.8803191 C47.3771144,44.8138298 47.178607,44.6808511 46.9139303,44.6143617 C46.9139303,44.6143617 46.5169154,50.5319149 50.8840796,51.7952128 C51.8104478,50 53.3985075,49.0026596 54.3910448,49.3351064 C55.0527363,49.8670213 55.6482587,50.3324468 56.1776119,50.7978723 C62.2651741,55.9175532 66.9631841,54.8537234 66.9631841,54.8537234 C66.9631841,54.8537234 67.0293532,74.3351064 67.0293532,76.7952128 C67.0293532,76.7952128 49.4945274,75.3989362 58.8905473,87.4335106 C58.8905473,87.4335106 60.4124378,83.0452128 62.0004975,84.4414894 C64.2502488,86.3696809 67.1616915,90.2925532 67.1616915,90.6914894 L67.1616915,95.9441489 L63.6547264,96.143617 C61.6034826,96.2101064 55.1189055,97.7393617 55.1189055,97.7393617 C46.1199005,75.3324468 51.0825871,58.3776596 53.5308458,52.393617 C44.59801,54.2553191 43.1422886,43.5505319 43.1422886,43.5505319 L43.1422886,43.5505319 L43.1422886,43.5505319 Z M75.499005,87.4335106 C83.3731343,76.9946809 69.080597,76.9281915 67.2278607,76.7952128 C68.4189055,76.5957447 86.7477612,75.9308511 75.499005,87.4335106 L75.499005,87.4335106 L75.499005,87.4335106 Z M82.9761194,52.6595745 C93.1661692,80.1861702 80.1970149,97.8058511 80.1970149,97.8058511 C88.2034826,76.7952128 83.0422886,59.375 79.5353234,52.8590426 C77.7487562,53.0585106 75.5651741,52.9255319 75.5651741,52.9255319 C75.5651741,52.9255319 78.2781095,51.2632979 79.9985075,49.6675532 C81.7189055,48.0718085 86.4169154,43.9494681 91.8427861,43.4175532 C91.9089552,43.5505319 90.9825871,52.5930851 82.9761194,52.6595745 L82.9761194,52.6595745 L82.9761194,52.6595745 Z M99.0552239,17.2207447 C96.9378109,23.6702128 90.1885572,24.4015957 87.2109453,27.7260638 C83.7039801,31.5824468 82.6452736,38.8297872 82.6452736,38.8297872 C82.6452736,38.8297872 90.3208955,35.4388298 95.5482587,36.5026596 C101.834328,37.7659574 105.738308,40.4920213 105.738308,40.4920213 C105.738308,40.4920213 96.0114428,37.4335106 86.8800995,40.9574468 C77.7487562,44.481383 75.3004975,53.5239362 69.1467662,49.5345745 L67.4263682,24.0691489 L65.5074627,49.5345745 C59.2875622,53.5239362 56.9054726,44.481383 47.7741294,40.9574468 C38.6427861,37.4335106 28.9159204,40.4920213 28.9159204,40.4920213 C34.341791,40.0265957 38.7751244,42.2207447 38.7751244,42.2207447 C39.8338308,52.1276596 45.6567164,53.0585106 45.6567164,53.0585106 C39.6353234,75.9973404 51.8104478,97.8723404 53.7293532,101.263298 C56.5084577,106.183511 67.1616915,105.319149 67.1616915,105.319149 L67.1616915,116.356383 C66.8970149,114.361702 58.8243781,110.305851 57.3024876,109.640957 C42.0174129,102.925532 28.9820896,87.1675532 28.9820896,87.1675532 L28.2542289,92.8856383 C15.7482587,85.5718085 10.9179104,62.3670213 10.9179104,62.3670213 L7.54328358,66.6223404 C1.19104478,45.3457447 18.0641791,28.0585106 18.0641791,28.0585106 C16.2776119,24.9335106 10.9840796,12.9654255 21.1741294,7.77925532 C31.3641791,2.59308511 38.5766169,15.1595745 38.5766169,15.1595745 C50.9502488,11.9015957 67.360199,17.6196809 67.360199,17.6196809 C84.6965174,10.106383 96.1437811,15.5585106 96.1437811,15.5585106 C104.216418,1.66223404 115.862189,9.375 115.862189,9.375 C103.157711,6.84840426 99.0552239,17.2207447 99.0552239,17.2207447 L99.0552239,17.2207447 L99.0552239,17.2207447 Z"></path>
                            <path d="M35.0034826,16.4893617 C35.0034826,16.4893617 27.3278607,6.84840426 21.041791,13.1648936 C21.041791,13.1648936 26.1368159,12.9654255 28.5850746,15.9574468 C28.5850746,15.9574468 22.2328358,13.231383 19.3875622,18.8164894 C19.3875622,18.8164894 22.4975124,17.2207447 24.3502488,19.0824468 C24.3502488,19.0824468 19.9830846,22.5398936 20.3800995,25.9973404 C20.2477612,25.9973404 28.1880597,18.0851064 35.0034826,16.4893617"></path>
                        </g>
                    </g>
                </g>
            </g>
        </g>
    </g>
</svg>